<svg width="40" height="50" viewBox="0 0 40 50" fill="none" xmlns="http://www.w3.org/2000/svg">
<path d="M39.2627 17.4122C39.6698 17.4122 39.9999 17.0843 39.9999 16.6797V9.60422C39.9999 8.15758 38.8648 6.96671 37.4157 6.89317C28.6725 6.45086 23.9733 2.89846 21.9505 0.820348C21.4356 0.291321 20.7429 0 20 0C19.257 0 18.5643 0.291321 18.0496 0.82025C16.0266 2.89837 11.3274 6.45077 2.58399 6.89317C1.13506 6.96671 0 8.15748 0 9.60422V30.0251C0 35.9063 3.18499 41.3868 8.31228 44.328L16.6529 49.1113C17.6853 49.7038 18.8425 50 20 50C21.1573 50 22.3149 49.7038 23.347 49.1114L31.6878 44.3281C36.8149 41.3869 40 35.9064 40 30.0252V20.098C40 19.6934 39.6699 19.3656 39.2628 19.3656C38.8556 19.3656 38.5255 19.6934 38.5255 20.098V30.0252C38.5255 35.3847 35.6229 40.3792 30.9506 43.0595L22.6097 47.8429C21 48.7667 19 48.7666 17.3901 47.8428L9.04942 43.0595C4.37707 40.3792 1.47449 35.3847 1.47449 30.0252V9.60422C1.47449 8.93818 1.99488 8.38991 2.65909 8.35622C11.9076 7.88833 16.9355 4.07195 19.1096 1.83865C19.344 1.59773 19.6602 1.465 20 1.465C20.3397 1.465 20.6559 1.59773 20.8904 1.83875C23.0643 4.07195 28.0922 7.88833 37.3406 8.35622C38.005 8.39001 38.5254 8.93818 38.5254 9.60422V16.6797C38.5254 17.0843 38.8555 17.4122 39.2627 17.4122Z" fill="url(#paint0_linear)"/>
<path d="M4.70951 19.3654C4.30236 19.3654 3.97227 19.6932 3.97227 20.0978V30.025C3.97227 34.5006 6.39603 38.6718 10.2978 40.9107L18.6388 45.6943C19.0528 45.9315 19.5235 46.0569 20 46.0569C20.4764 46.0569 20.9471 45.9315 21.3614 45.6941L29.7023 40.9106C33.604 38.6718 36.0277 34.5006 36.0277 30.025V12.3036C36.0277 11.4389 35.3783 10.7061 34.5175 10.5992C27.905 9.77288 23.555 7.27707 21.0693 5.32816C20.4397 4.83605 19.5603 4.83605 18.9299 5.32884C16.4451 7.27707 12.095 9.77288 5.48323 10.5991C4.62193 10.7061 3.97237 11.4389 3.97237 12.3036V16.6797C3.97237 17.0843 4.30246 17.4122 4.70961 17.4122C5.11677 17.4122 5.44686 17.0843 5.44686 16.6797V12.3036C5.44686 12.176 5.54103 12.0682 5.66665 12.0527C12.6156 11.1843 17.2115 8.54236 19.8425 6.47958C19.9351 6.40701 20.0646 6.40692 20.1567 6.47889C22.7885 8.54236 27.3844 11.1844 34.334 12.0528C34.459 12.0682 34.5532 12.1761 34.5532 12.3036V30.025C34.5532 33.9791 32.4119 37.6642 28.965 39.6421L20.6246 44.4254C20.2439 44.6435 19.756 44.6433 19.3759 44.4255L11.0353 39.6422C7.5883 37.6642 5.44686 33.9792 5.44686 30.025V20.0978C5.44676 19.6932 5.11677 19.3654 4.70951 19.3654Z" fill="url(#paint1_linear)"/>
<path d="M11.0631 23.2813C11.6618 23.2813 12.2246 23.5128 12.6479 23.9334L16.5002 27.7597C16.7882 28.0458 17.2548 28.0456 17.5428 27.7597L21.7627 23.5671C22.0507 23.281 22.0507 22.8173 21.7627 22.5312C21.4748 22.2453 21.008 22.2453 20.7202 22.5312L17.0215 26.206L13.6905 22.8976C12.9889 22.2004 12.0558 21.8165 11.0632 21.8165C10.0706 21.8165 9.1375 22.2005 8.43584 22.8975C7.73369 23.5952 7.34698 24.5224 7.34698 25.5086C7.34698 26.4951 7.73378 27.4222 8.43584 28.1191L14.3933 34.0378C15.0945 34.7357 16.0279 35.12 17.0216 35.12C18.0146 35.12 18.9477 34.7356 19.6484 34.0383L31.564 22.2C32.2663 21.5028 32.6531 20.5757 32.6531 19.5894C32.6531 18.6031 32.2664 17.6759 31.5643 16.9783C30.8626 16.2812 29.9295 15.8974 28.9369 15.8974C27.9443 15.8974 27.0112 16.2813 26.3096 16.9783L23.1532 20.114C22.8653 20.4002 22.8653 20.8639 23.1532 21.1499C23.4411 21.4359 23.9079 21.4359 24.1958 21.1499L27.3521 18.0141C27.7753 17.5936 28.3381 17.3622 28.9369 17.3622C29.5357 17.3622 30.0984 17.5936 30.5217 18.0142C30.9454 18.4351 31.1787 18.9945 31.1787 19.5894C31.1787 20.1843 30.9455 20.7433 30.5217 21.1639L18.6054 33.0029C18.1827 33.4235 17.6202 33.6552 17.0216 33.6552C16.4223 33.6552 15.8594 33.4235 15.4363 33.0024L9.4782 27.083C9.05473 26.6626 8.82147 26.1035 8.82147 25.5086C8.82147 24.9137 9.05483 24.3543 9.4785 23.9334C9.90158 23.5128 10.4643 23.2813 11.0631 23.2813Z" fill="url(#paint2_linear)"/>
<defs>
<linearGradient id="paint0_linear" x1="20" y1="0" x2="20" y2="50" gradientUnits="userSpaceOnUse">
<stop stop-color="#B29457"/>
<stop offset="1" stop-color="#FBF7C8"/>
</linearGradient>
<linearGradient id="paint1_linear" x1="20" y1="0" x2="20" y2="50" gradientUnits="userSpaceOnUse">
<stop stop-color="#B29457"/>
<stop offset="1" stop-color="#FBF7C8"/>
</linearGradient>
<linearGradient id="paint2_linear" x1="20" y1="0" x2="20" y2="50" gradientUnits="userSpaceOnUse">
<stop stop-color="#B29457"/>
<stop offset="1" stop-color="#FBF7C8"/>
</linearGradient>
</defs>
</svg>
